<?xml version="1.0" encoding="utf-8"?>
<!-- Generator: Adobe Illustrator 19.2.0, SVG Export Plug-In . SVG Version: 6.00 Build 0)  -->
<svg version="1.1" id="Layer_1" xmlns="http://www.w3.org/2000/svg" xmlns:xlink="http://www.w3.org/1999/xlink" x="0px" y="0px"
	 viewBox="0 0 186.7 43.4" style="enable-background:new 0 0 186.7 43.4;" xml:space="preserve">
<style type="text/css">
	.st0{enable-background:new    ;}
	.st1{fill:#EB6B24;}
</style>
<title>MAGAZINE</title>
<g class="st0">
	<path class="st1" d="M30.3,25.3c0,0.4,0,0.8-0.1,1.2l-0.8,4.6c-0.3,2-1.3,3.7-3,5.1c-1.7,1.4-3.5,2.1-5.4,2.1H0l1.6-9.2h18.9
		l0.5-2.6H9.2c-1.8,0-3.2-0.6-4.3-1.7c-1.1-1.1-1.7-2.5-1.7-4.2c0-0.4,0-0.8,0.1-1.2h20.9c1.8,0,3.2,0.6,4.3,1.7
		C29.7,22.2,30.3,23.6,30.3,25.3z M33.5,7.7l-1.7,9.2h-28l0.4-2c0.3-2,1.3-3.7,3-5.1c1.7-1.4,3.5-2.1,5.4-2.1H33.5z"/>
	<path class="st1" d="M62.1,19.4c-0.3,2-1.3,3.7-3,5.1c-1.6,1.4-3.4,2.1-5.4,2.1H41.9l-2.1,11.7h-9.2L34,19.4H62.1z M63,13.6
		c0,0.4,0,0.8-0.1,1.2l-0.4,2H34.5l1.6-9.2H57c1.7,0,3.2,0.6,4.3,1.7S63,11.9,63,13.6z"/>
	<path class="st1" d="M92.7,19.4l-2.1,11.7c-0.3,2-1.3,3.7-3,5.1c-1.7,1.4-3.5,2.1-5.4,2.1H68.4c-1.7,0-3.2-0.6-4.3-1.7
		c-1.1-1.1-1.7-2.5-1.7-4.2c0-0.4,0-0.8,0.1-1.2l2-11.7h9.2l-1.7,9.7h9.7l1.7-9.7H92.7z M93.6,13.6c0,0.4,0,0.8-0.1,1.2l-0.4,2H65
		l0.4-2c0.3-2,1.3-3.7,3-5.1c1.7-1.4,3.5-2.1,5.4-2.1h13.8c1.7,0,3.2,0.6,4.3,1.7C93,10.5,93.6,11.9,93.6,13.6z"/>
	<path class="st1" d="M123.3,19.4c-0.2,1.1-1,2.2-2.6,3.6c0.9,1.2,1.4,2.2,1.4,3.1c0,0.2,0,0.3,0,0.5L120,38.3h-9.1l2.1-11.7h-9.8
		l-2.1,11.7h-9.2l3.3-18.9H123.3z M124.3,13.6c0,0.4,0,0.8-0.1,1.2l-0.4,2H95.7l1.6-9.2h20.9c1.7,0,3.2,0.6,4.3,1.7
		S124.3,11.9,124.3,13.6z"/>
	<path class="st1" d="M156,7.7l-1.6,9.2h-28.1l1.6-9.2H156z M144.5,19.4l-3.3,18.9H132l3.3-18.9H144.5z"/>
	<path class="st1" d="M183.4,25.3c0,0.4,0,0.8-0.1,1.2l-0.8,4.6c-0.3,2-1.3,3.7-3,5.1c-1.7,1.4-3.5,2.1-5.4,2.1h-20.9l1.6-9.2h18.9
		l0.5-2.6h-11.7c-1.8,0-3.2-0.6-4.3-1.7c-1.1-1.1-1.7-2.5-1.7-4.2c0-0.4,0-0.8,0.1-1.2h20.9c1.8,0,3.2,0.6,4.3,1.7
		S183.4,23.6,183.4,25.3z M186.6,7.7l-1.7,9.2h-28l0.4-2c0.3-2,1.3-3.7,3-5.1c1.7-1.4,3.5-2.1,5.4-2.1H186.6z"/>
</g>
</svg>
